[center][img]http://img830.imageshack.us/img830/6950/stuffiesyourhighness.jpg[/img]



[img]http://leetleech.org/images/48874973695367351744.png[/img]


Format                           : AVI
Format/Info                      : Audio Video Interleave
File size                        : 1.16 GiB
Duration                         : 1h 39mn
Overall bit rate                 : 1 668 Kbps
Writing library                  : VirtualDub build 32839/release

Video
ID                               : 0
Format                           : MPEG-4 Visual
Format profile                   : Advanced Simple@L5
Format settings, BVOP            : 2
Format settings, QPel            : No
Format settings, GMC             : No warppoints
Format settings, Matrix          : Default (H.263)
Muxing mode                      : Packed bitstream
Codec ID                         : XVID
Codec ID/Hint                    : XviD
Duration                         : 1h 39mn
Bit rate                         : 1 402 Kbps
Width                            : 720 pixels
Height                           : 320 pixels
Display aspect ratio             : 2.25:1
Frame rate                       : 25.000 fps
Color space                      : YUV
Chroma subsampling               : 4:2:0
Bit depth                        : 8 bits
Scan type                        : Progressive
Compression mode                 : Lossy
Bits/(Pixel*Frame)               : 0.243
Stream size                      : 995 MiB (84%)
Writing library                  : XviD 63

Audio
ID                               : 1
Format                           : MPEG Audio
Format version                   : Version 1
Format profile                   : Layer 3
Codec ID                         : 55
Codec ID/Hint                    : MP3
Duration                         : 1h 39mn
Bit rate mode                    : Constant
Bit rate                         : 256 Kbps
Channel(s)                       : 2 channels
Sampling rate                    : 44.1 KHz
Compression mode                 : Lossy
Stream size                      : 182 MiB (15%)
Alignment                        : Split accross interleaves
Interleave, duration             : 40 ms (1.00 video frame)
Interleave, preload duration     : 500 ms




[url]http://www.imdb.com/title/tt1240982/[/url]




[IMG]http://leetleech.org/images/89524873606771859129.png[/IMG]


Users: 6.1/10 (5,415 votes) 94 reviews | Critics: 114 reviews Metascore: 31/100 (based on 33 reviews from Metacritic.com)

When Prince Fabious's bride is kidnapped, he goes on a quest to rescue her... accompanied by his lazy useless brother Thadeous.
Director:
David Gordon Green
Writers:
Danny McBride, Ben Best
Stars:
Danny McBride, Natalie Portman and James Franco 



[img]http://leetleech.org/images/95521316153253938506.png[/img]




[img]http://img23.imageshack.us/img23/9883/vlcsnap2011051621h12m32.png[/img]

[img]http://img847.imageshack.us/img847/6932/vlcsnap2011051621h11m52.png[/img]

[img]http://img156.imageshack.us/img156/2130/vlcsnap2011051621h09m21.png[/img]



SOURCES:



VIDEO:Kinopark (IMAGiNE) ...............Thanks

AUDIO:IMAGiNE ..............................Thanks



Few filters .....rgb ,saturation levels ..slight smoother then sharpen .It has its flaws so check out sample 1st before downloading so dont be moaning later

Enjoy !


Greetz to IMAGiNE,Flawl3ss,DiLLoN,BDK,NOiR,TOXiCiNK,THC,Ez,Rx,Boobyblue,TaRiQ786,LKRG,CrEwSaDe





[img]http://img411.imageshack.us/img411/6898/sig1n.jpg[/img]












[/center]